<?xml version="1.0" encoding="UTF-8"?>
<svg id="Layer_1" data-name="Layer 1" xmlns="http://www.w3.org/2000/svg" viewBox="0 0 600 300">
  <defs>
    <style>
      .cls-1 {
        fill: #f2f2f2;
      }

      .cls-2 {
        fill: #ee8631;
      }

      .cls-3 {
        fill: #54cdf5;
      }

      .cls-4 {
        fill: none;
        stroke: #f2f2f2;
        stroke-linecap: round;
        stroke-linejoin: round;
        stroke-width: 13.64px;
      }
    </style>
  </defs>
  <g>
    <path class="cls-1" d="m143.26,109.41h26.91c6.51,0,12.71.73,18.57,2.18,5.87,1.46,10.98,3.81,15.35,7.07,4.37,3.26,7.84,7.5,10.41,12.71,2.57,5.21,3.85,11.54,3.85,18.97,0,6.59-1.25,12.4-3.74,17.42-2.49,5.02-5.85,9.24-10.06,12.65-4.22,3.41-9.08,6-14.61,7.76-5.52,1.76-11.31,2.65-17.36,2.65h-29.33v-81.42Zm17.94,64.86h9.32c4.14,0,7.99-.42,11.56-1.26,3.56-.84,6.65-2.24,9.26-4.2,2.61-1.96,4.66-4.52,6.15-7.71,1.49-3.18,2.24-7.07,2.24-11.67,0-3.99-.75-7.46-2.24-10.41-1.5-2.95-3.51-5.39-6.04-7.3-2.53-1.92-5.5-3.35-8.91-4.31-3.41-.96-7-1.44-10.75-1.44h-10.58v48.3Z"/>
    <path class="cls-1" d="m283.78,130.57c-1.76-2.15-3.93-3.79-6.5-4.94-2.57-1.15-5.54-1.73-8.91-1.73s-6.5.65-9.37,1.95c-2.88,1.3-5.37,3.12-7.47,5.46-2.11,2.34-3.76,5.12-4.95,8.34-1.19,3.22-1.78,6.71-1.78,10.47s.59,7.34,1.78,10.52c1.19,3.18,2.82,5.94,4.89,8.28,2.07,2.34,4.5,4.16,7.3,5.46,2.8,1.3,5.81,1.96,9.03,1.96,3.68,0,6.94-.77,9.78-2.3,2.83-1.53,5.17-3.68,7.01-6.44l14.95,11.16c-3.45,4.83-7.82,8.4-13.11,10.7-5.29,2.3-10.73,3.45-16.33,3.45-6.36,0-12.23-1-17.59-2.99-5.37-1.99-10-4.85-13.92-8.57-3.91-3.72-6.96-8.22-9.14-13.51s-3.28-11.19-3.28-17.71,1.09-12.42,3.28-17.71,5.23-9.79,9.14-13.51c3.91-3.72,8.55-6.57,13.92-8.57,5.37-1.99,11.23-2.99,17.59-2.99,2.3,0,4.7.21,7.19.63,2.49.42,4.95,1.09,7.36,2.01s4.73,2.15,6.96,3.68c2.22,1.53,4.22,3.41,5.98,5.63l-13.8,11.27Z"/>
    <path class="cls-1" d="m336.11,109.41h14.83l35.42,81.42h-20.24l-7.01-17.25h-31.62l-6.79,17.25h-19.78l35.19-81.42Zm6.9,23.69l-9.89,25.3h19.9l-10.01-25.3Z"/>
    <path class="cls-1" d="m447.77,130.57c-1.76-2.15-3.93-3.79-6.5-4.94-2.57-1.15-5.54-1.73-8.91-1.73s-6.5.65-9.37,1.95c-2.88,1.3-5.37,3.12-7.47,5.46-2.11,2.34-3.76,5.12-4.95,8.34-1.19,3.22-1.78,6.71-1.78,10.47s.59,7.34,1.78,10.52c1.19,3.18,2.82,5.94,4.89,8.28,2.07,2.34,4.5,4.16,7.3,5.46,2.8,1.3,5.81,1.96,9.03,1.96,3.68,0,6.94-.77,9.78-2.3,2.83-1.53,5.17-3.68,7.01-6.44l14.95,11.16c-3.45,4.83-7.82,8.4-13.11,10.7-5.29,2.3-10.73,3.45-16.33,3.45-6.36,0-12.23-1-17.59-2.99-5.37-1.99-10-4.85-13.92-8.57-3.91-3.72-6.96-8.22-9.14-13.51s-3.28-11.19-3.28-17.71,1.09-12.42,3.28-17.71,5.23-9.79,9.14-13.51c3.91-3.72,8.55-6.57,13.92-8.57,5.37-1.99,11.23-2.99,17.59-2.99,2.3,0,4.7.21,7.19.63,2.49.42,4.95,1.09,7.36,2.01s4.73,2.15,6.96,3.68c2.22,1.53,4.22,3.41,5.98,5.63l-13.8,11.27Z"/>
  </g>
  <g>
    <line class="cls-4" x1="512.98" y1="67.71" x2="512.98" y2="232.25"/>
    <g>
      <g>
        <line class="cls-4" x1="512.98" y1="232.25" x2="138.98" y2="232.25"/>
        <g>
          <polyline class="cls-4" points="86.92 67.71 257.8 67.71 460.98 67.71"/>
          <polyline class="cls-4" points="86.92 67.71 86.92 151.43 86.92 232.25"/>
        </g>
      </g>
      <circle class="cls-3" cx="513" cy="68.22" r="16.53"/>
      <circle class="cls-2" cx="87" cy="231.78" r="16.53"/>
    </g>
  </g>
</svg>